# xmcd CD database file
#
# Track frame offsets:
#	150
#	16113
#	30276
#	44011
#	59386
#	75886
#	92991
#	104144
#	118920
#	135449
#	146103
#	159110
#	174425
#	189373
#	203953
#	217579
#	235241
#	246576
#	260241
#	276878
#
# Disc length: 3857 seconds
#
# Revision: 6
# Processed by: cddbd v1.5.2PL0 Copyright (c) Steve Scherf et al.
# Submitted via: CDex 1.70beta2
#
DISCID=1a0f0f14
DTITLE=Olivia Newton John - Best Of Olivia Newton John
DYEAR=1997
DGENRE=Pop
TTITLE0=Have You Never been Mellow
TTITLE1=It's so Easy
TTITLE2=Follow Me
TTITLE3=Please Mr. Please
TTITLE4=I Honestly Love You
TTITLE5=Me and Bobby McGee
TTITLE6=If
TTITLE7=Bank of the Ohio
TTITLE8=Love Song
TTITLE9=Help Me Make it Through the Night
TTITLE10=If not for You
TTITLE11=What is Life
TTITLE12=Take Me Home Country Roads
TTITLE13=If You Love Me (Let Me Know)
TTITLE14=Let Me be There
TTITLE15=Angel of the Morning
TTITLE16=Changes
TTITLE17=Everything I Own
TTITLE18=If You Could Read My Mind
TTITLE19=Long Live Love
EXTD=YEAR: 1997
EXTT0=
EXTT1=
EXTT2=
EXTT3=
EXTT4=
EXTT5=
EXTT6=
EXTT7=
EXTT8=
EXTT9=
EXTT10=
EXTT11=
EXTT12=
EXTT13=
EXTT14=
EXTT15=
EXTT16=
EXTT17=
EXTT18=
EXTT19=
PLAYORDER=
